HIERARCHY
ROOT Hips
{
	OFFSET 0.000000 0.000000 0.000000
	CHANNELS 6 Xposition Yposition Zposition Zrotation Yrotation Xrotation 
	JOINT LHipJoint
	{
		OFFSET 0.000000 0.000000 0.000000
		CHANNELS 3 Zrotation Yrotation Xrotation
		JOINT LeftUpLeg
		{
			OFFSET 1.363060 -1.794630 0.839290
			CHANNELS 3 Zrotation Yrotation Xrotation
			JOINT LeftLeg
			{
				OFFSET 2.448110 -6.726130 0.000000
				CHANNELS 3 Zrotation Yrotation Xrotation
				JOINT LeftFoot
				{
					OFFSET 2.562200 -7.039590 0.000000
					CHANNELS 3 Zrotation Yrotation Xrotation
					JOINT LeftToeBase
					{
						OFFSET 0.157640 -0.433110 2.322550
						CHANNELS 3 Zrotation Yrotation Xrotation
						End Site
						{
							OFFSET 0.000000 0.000000 0.000000
						}
					}
				}
			}
		}
	}
	JOINT RHipJoint
	{
		OFFSET 0.000000 0.000000 0.000000
		CHANNELS 3 Zrotation Yrotation Xrotation
		JOINT RightUpLeg
		{
			OFFSET -1.305520 -1.794630 0.839290
			CHANNELS 3 Zrotation Yrotation Xrotation
			JOINT RightLeg
			{
				OFFSET -2.542530 -6.985550 0.000000
				CHANNELS 3 Zrotation Yrotation Xrotation
				JOINT RightFoot
				{
					OFFSET -2.568260 -7.056230 0.000000
					CHANNELS 3 Zrotation Yrotation Xrotation
					JOINT RightToeBase
					{
						OFFSET -0.164730 -0.452590 2.363150
						CHANNELS 3 Zrotation Yrotation Xrotation
						End Site
						{
							OFFSET 0.000000 0.000000 0.000000
						}
					}
				}
			}
		}
	}
}
MOTION
Frames: 14
Frame Time: 0.008333
-19.713942 16.138363 -2.718768 -137.220572 89.995498 -112.066642 -14.531871 3.687377 -1.396297 0.366208 8.562827 0.472571 -0.456014 1.177568 18.871494 1.292672 7.749581 12.565684 2.213800 0.000000 -82.455501 6.106564 0.322663 2.884751 7.262805 7.246744 -61.133368 1.717508 -2.269327 33.989907 -1.255126 -5.427666 0.742053 -1.814100 -0.000000 -35.254201
-19.498919 16.169499 -2.684205 -137.425550 89.876917 -112.365757 -14.694790 3.649869 -1.365635 0.769216 8.705184 -0.610123 -0.294688 1.322740 21.405358 1.444749 8.182225 14.537184 2.511800 -0.000000 -79.239400 6.040766 0.266012 2.663096 7.903740 6.889209 -60.555764 1.725907 -2.354229 35.011977 -1.237271 -5.204943 -0.030577 -1.655600 -0.000001 -34.829200
-19.287002 16.203180 -2.647783 -137.285094 89.788683 -112.355043 -14.835040 3.576846 -1.355957 1.097885 8.910082 -1.775625 -0.155354 1.449264 24.080657 1.608545 8.747740 16.198694 2.848600 -0.000000 -75.026300 5.983145 0.192024 2.438739 8.563273 6.468963 -59.860229 1.766689 -2.424974 35.875920 -1.193372 -4.821997 -0.964964 -1.453100 -0.000000 -34.575500
-19.078165 16.239109 -2.609810 -136.706676 89.727857 -111.937112 -14.956120 3.468605 -1.368869 1.354986 9.176416 -3.016629 -0.038808 1.561765 26.862818 1.776183 9.460332 17.483209 3.230801 0.000000 -70.159200 5.927603 0.094385 2.221506 9.226751 6.014938 -59.045315 1.835023 -2.479260 36.561137 -1.132518 -4.328111 -2.004255 -1.231500 0.000000 -34.469500
-18.872061 16.276948 -2.569905 -135.734367 89.702413 -111.148885 -15.048105 3.332184 -1.405265 1.516741 9.486198 -4.319823 0.055628 1.666404 29.709552 1.941870 10.332611 18.350768 3.661200 -0.000000 -64.985800 5.882088 -0.020917 2.018635 9.857971 5.543496 -58.125003 1.922646 -2.517339 37.068148 -1.061550 -3.761386 -3.093849 -1.010100 0.000001 -34.482700
-18.669035 16.316676 -2.528539 -134.262246 89.704646 -109.878149 -15.115475 3.169101 -1.462867 1.589333 9.824072 -5.677090 0.135113 1.767014 32.577661 2.102693 11.355508 18.805886 4.130900 0.000000 -60.011100 5.841586 -0.157646 1.838438 10.443963 5.082441 -57.103738 2.024225 -2.537930 37.381014 -0.989190 -3.174149 -4.173753 -0.807300 0.000000 -34.587500
-18.468468 16.358284 -2.485742 -132.255339 89.731202 -108.081623 -15.152963 2.983291 -1.540351 1.564982 10.169545 -7.080982 0.205500 1.866251 35.431678 2.256353 12.500540 18.857832 4.616300 0.000000 -55.471300 5.811273 -0.311462 1.685782 10.962347 4.648548 -55.996521 2.133270 -2.542266 37.500654 -0.921356 -2.604831 -5.197056 -0.632300 -0.000000 -34.755200
-18.270432 16.401918 -2.441920 -129.613650 89.769897 -105.651560 -15.160015 2.775721 -1.634553 1.450485 10.504026 -8.527116 0.273438 1.963993 38.239463 2.401771 13.723576 18.532946 5.084000 -0.000000 -51.529000 5.792121 -0.481461 1.565084 11.404785 4.261348 -54.814376 2.245334 -2.531328 37.423317 -0.863521 -2.091520 -6.124444 -0.490100 -0.000001 -34.960101
-18.074534 16.447772 -2.397359 -126.235772 89.807103 -102.483041 -15.133318 2.548115 -1.740401 1.253628 10.807075 -10.008653 0.344201 2.057876 40.967858 2.539182 14.978532 17.878483 5.501800 0.000000 -48.356100 5.788246 -0.664570 1.479021 11.767206 3.934579 -53.566052 2.356802 -2.506564 37.150483 -0.819082 -1.661390 -6.930258 -0.380000 0.000000 -35.180000
-17.880574 16.496054 -2.352510 -122.008650 89.822730 -98.454509 -15.067620 2.301429 -1.856207 0.990081 11.067993 -11.525680 0.419445 2.146066 43.595216 2.665847 16.199647 16.912584 5.824700 -0.000000 -45.714200 5.805340 -0.856296 1.427650 12.055193 3.681393 -52.261317 2.465727 -2.469573 36.684985 -0.790118 -1.333294 -7.600745 -0.298700 0.000000 -35.401400
-17.688674 16.546924 -2.307649 -116.855788 89.798564 -93.489052 -14.955621 2.040678 -1.976396 0.674870 11.271880 -13.069510 0.499303 2.225729 46.089122 2.782022 17.343625 15.701274 6.031600 0.000000 -43.708800 5.852105 -1.048551 1.409486 12.278199 3.509304 -50.902090 2.570413 -2.420708 36.032986 -0.776907 -1.114653 -8.133457 -0.241200 0.000000 -35.615500
-17.498232 16.600446 -2.263063 -110.773279 89.716339 -87.579547 -14.789903 1.774004 -2.098126 0.325712 11.412998 -14.635627 0.579830 2.297213 48.424227 2.885534 18.362487 14.286812 6.101300 -0.000000 -42.154900 5.937945 -1.229422 1.419755 12.451406 3.424479 -49.488656 2.669565 -2.358800 35.202488 -0.778441 -1.003609 -8.534238 -0.202400 0.000000 -35.820500
-17.309406 16.656603 -2.218941 -103.889197 89.564185 -80.853373 -14.566961 1.514276 -2.217815 -0.043582 11.489123 -16.216860 0.654847 2.363457 50.573111 2.975020 19.225224 12.725479 6.030699 0.000000 -40.959400 6.069940 -1.383867 1.450995 12.589515 3.428381 -48.016921 2.761261 -2.280436 34.204454 -0.792468 -0.989535 -8.815138 -0.178100 0.000000 -36.016100
-17.121863 16.715206 -2.175388 -96.489632 89.339496 -73.595981 -14.291169 1.276277 -2.332136 -0.425376 11.500964 -17.805626 0.717146 2.429929 52.510021 3.049286 19.914115 11.073520 5.830200 0.000000 -40.016500 6.248390 -1.497114 1.493054 12.703575 3.516871 -46.481438 2.843000 -2.180698 33.052402 -0.815741 -1.054925 -8.991471 -0.164701 0.000000 -36.202601
